<svg width="19" height="32" viewBox="0 0 19 32" fill="none" xmlns="http://www.w3.org/2000/svg">
<g clip-path="url(#clip0_341_4)">
<path d="M17.7647 0.0066449L13.464 0C8.63225 0 5.50977 3.0849 5.50977 7.85958V11.4834H1.18559C0.811924 11.4834 0.509338 11.7751 0.509338 12.1349V17.3854C0.509338 17.7453 0.812271 18.0366 1.18559 18.0366H5.50977V31.2853C5.50977 31.6451 5.81236 31.9364 6.18602 31.9364H11.8279C12.2015 31.9364 12.5041 31.6447 12.5041 31.2853V18.0366H17.5601C17.9337 18.0366 18.2363 17.7453 18.2363 17.3854L18.2384 12.1349C18.2384 11.9622 18.167 11.7967 18.0403 11.6744C17.9137 11.5522 17.7412 11.4834 17.5618 11.4834H12.5041V8.41144C12.5041 6.93495 12.8695 6.18541 14.8668 6.18541L17.764 6.18441C18.1373 6.18441 18.4399 5.89269 18.4399 5.53321V0.657846C18.4399 0.298689 18.1376 0.00730939 17.7647 0.0066449Z" fill="#2A1911"/>
</g>
<defs>
<clipPath id="clip0_341_4">
<rect width="18.4248" height="31.9364" fill="white" transform="translate(0.509338)"/>
</clipPath>
</defs>
</svg>
