<svg width="25" height="25" viewBox="0 0 25 25" fill="none" xmlns="http://www.w3.org/2000/svg">
<g clip-path="url(#clip0_341_14)">
<path d="M3.18493 0.882751H21.0232C22.7179 0.882751 24.1033 2.26867 24.1033 3.96339V21.8016C24.1033 23.4959 22.7179 24.8808 21.0232 24.8808H3.18493C1.49021 24.8808 0.103333 23.4958 0.103333 21.8016V3.96339C0.103333 2.26867 1.49021 0.882751 3.18493 0.882751ZM17.587 3.54811C16.992 3.54811 16.5066 4.03539 16.5066 4.63011V7.21523C16.5066 7.81019 16.992 8.29635 17.587 8.29635H20.2993C20.8933 8.29635 21.3797 7.81019 21.3797 7.21523V4.63011C21.3797 4.03539 20.8933 3.54811 20.2993 3.54811H17.587ZM21.3901 11.0312H19.2784C19.4786 11.6852 19.5872 12.3749 19.5872 13.092C19.5872 17.0825 16.2459 20.3192 12.1259 20.3192C8.00693 20.3192 4.66557 17.0825 4.66557 13.092C4.66557 12.3749 4.77517 11.6852 4.97445 11.0312H2.77133V21.1698C2.77133 21.6948 3.20005 22.122 3.72461 22.122H20.4372C20.9622 22.122 21.3901 21.6948 21.3901 21.1698V11.0312ZM12.126 8.16003C9.46517 8.16003 7.30677 10.2503 7.30677 12.8311C7.30677 15.4092 9.46517 17.5011 12.126 17.5011C14.7882 17.5011 16.9467 15.4092 16.9467 12.8311C16.9467 10.2502 14.7882 8.16003 12.126 8.16003Z" fill="#2A1911"/>
</g>
<defs>
<clipPath id="clip0_341_14">
<rect width="24" height="24" fill="white" transform="translate(0.103333 0.8815)"/>
</clipPath>
</defs>
</svg>
