<svg width="51" height="51" viewBox="0 0 51 51" fill="none" xmlns="http://www.w3.org/2000/svg">
<g clip-path="url(#clip0_34_177)">
<path d="M28.6978 46.3448V38.0021C28.6978 36.8701 29.6154 35.9533 30.7467 35.9533C34.7834 35.9533 36.9795 31.8132 37.2843 23.6407H30.7467C29.6155 23.6407 28.6978 22.7226 28.6978 21.5919V3.9759C28.6978 2.84434 29.6154 1.9275 30.7467 1.9275H48.1769C49.3078 1.9275 50.2258 2.84535 50.2258 3.9759V21.592C50.2258 25.5093 49.8304 29.1041 49.054 32.2789C48.2565 35.5335 47.0323 38.3788 45.4162 40.7367C43.7541 43.1598 41.6732 45.0613 39.2349 46.3855C36.7781 47.7181 33.9223 48.3945 30.7458 48.3945C29.6155 48.3936 28.6978 47.4759 28.6978 46.3448ZM2.27423 35.9526C1.1431 35.9526 0.22583 36.8701 0.22583 38.0005V46.3449C0.22583 47.4759 1.1431 48.3929 2.27423 48.3929C5.44916 48.3929 8.3064 47.7164 10.7616 46.3839C13.2012 45.0598 15.2818 43.16 16.9437 40.7352C18.5608 38.3772 19.7849 35.5317 20.5825 32.2756C21.3592 29.1008 21.7538 25.5059 21.7538 21.5903V3.97418C21.7538 2.84263 20.8357 1.92578 19.705 1.92578H2.27423C1.1431 1.92578 0.22583 2.84348 0.22583 3.97418V21.5903C0.22583 22.7217 1.1431 23.6391 2.27423 23.6391H8.72006C8.41898 31.8124 6.25457 35.9526 2.27423 35.9526Z" fill="#2A1911"/>
</g>
<defs>
<clipPath id="clip0_34_177">
<rect width="50" height="50" fill="white" transform="translate(0.22583 0.160156)"/>
</clipPath>
</defs>
</svg>
