<svg width="50" height="48" viewBox="0 0 50 48" fill="none" xmlns="http://www.w3.org/2000/svg">
<path d="M21.528 2.72564V11.0691C21.528 12.2006 20.6107 13.1174 19.4792 13.1174C15.442 13.1174 13.2459 17.2582 12.9415 25.4307H19.4792C20.6107 25.4307 21.528 26.3484 21.528 27.4796V45.0963C21.528 46.2272 20.6107 47.1442 19.4792 47.1442H2.0484C0.916414 47.1442 0 46.2265 0 45.0963V27.4796C0 23.5618 0.394468 19.9666 1.17209 16.7927C1.96962 13.5383 3.19384 10.6928 4.80967 8.33499C6.47234 5.91189 8.5521 4.01046 10.9917 2.68582C13.4477 1.35317 16.3038 0.677246 19.4799 0.677246C20.6107 0.677246 21.528 1.59409 21.528 2.72564ZM47.951 13.1176C49.082 13.1176 50 12.1999 50 11.0692V2.72579C50 1.59423 49.0822 0.677389 47.951 0.677389C44.7762 0.677389 41.9197 1.35346 39.4645 2.68597C37.0245 4.0106 34.9436 5.91204 33.2807 8.33513C31.6654 10.6929 30.4412 13.5386 29.6435 16.7937C28.8663 19.9686 28.4719 23.5638 28.4719 27.4797V45.0964C28.4719 46.2274 29.3894 47.1444 30.5207 47.1444H47.9509C49.0819 47.1444 49.999 46.2267 49.999 45.0964V27.4796C49.999 26.3486 49.082 25.4307 47.9509 25.4307H41.5065C41.8063 17.2584 43.9703 13.1176 47.951 13.1176Z" fill="#2A1911"/>
</svg>
