<svg width="41" height="41" viewBox="0 0 41 41" fill="none" xmlns="http://www.w3.org/2000/svg">
<g clip-path="url(#clip0_27_148)">
<path d="M38.1054 3.77673H3.34561C1.89863 3.77673 0.725525 4.94983 0.725525 6.39682V28.4056C0.725525 29.8525 1.89863 31.0256 3.34561 31.0256H14.8827L18.7205 35.5884C19.2183 36.1802 19.9522 36.522 20.7256 36.522C21.4991 36.522 22.2329 36.1803 22.7308 35.5884L26.5685 31.0257H38.1054C39.5525 31.0257 40.7255 29.8526 40.7255 28.4056V6.39691C40.7255 4.94975 39.5525 3.77673 38.1054 3.77673ZM8.18421 11.241H20.1493C20.8728 11.241 21.4593 11.8276 21.4593 12.5511C21.4593 13.2746 20.8728 13.8611 20.1493 13.8611H8.18421C7.46072 13.8611 6.87417 13.2746 6.87417 12.5511C6.87417 11.8276 7.46072 11.241 8.18421 11.241ZM33.2146 21.896H8.23644C7.51295 21.896 6.9264 21.3095 6.9264 20.586C6.9264 19.8625 7.51295 19.2759 8.23644 19.2759H33.2146C33.9381 19.2759 34.5247 19.8625 34.5247 20.586C34.5247 21.3095 33.9381 21.896 33.2146 21.896Z" fill="#D9AA63"/>
</g>
<defs>
<clipPath id="clip0_27_148">
<rect width="40" height="40" fill="white" transform="translate(0.725525 0.149292)"/>
</clipPath>
</defs>
</svg>
