<svg width="32" height="33" viewBox="0 0 32 33" fill="none" xmlns="http://www.w3.org/2000/svg">
<g clip-path="url(#clip0_27_130)">
<path d="M31.6571 24.4168C30.4659 22.1649 26.3293 19.7232 26.1472 19.6164C25.6157 19.3139 25.061 19.1537 24.5419 19.1537C23.7701 19.1537 23.1383 19.5073 22.7557 20.1503C22.1506 20.8741 21.4002 21.72 21.218 21.8511C19.8085 22.8074 18.7051 22.6988 17.4843 21.478L10.6704 14.6635C9.45726 13.4504 9.34573 12.3333 10.2955 10.9315C10.4284 10.7482 11.2743 9.9972 11.9981 9.39151C12.4596 9.11685 12.7764 8.70871 12.9152 8.20802C13.0997 7.54182 12.9638 6.75817 12.5284 5.99468C12.4258 5.81908 9.98286 1.6819 7.73215 0.491288C7.31214 0.268827 6.83874 0.151367 6.36416 0.151367C5.58228 0.151367 4.84668 0.456287 4.29379 1.00858L2.78817 2.51361C0.406946 4.89424 -0.455017 7.59284 0.224824 10.5341C0.791952 12.9853 2.44469 15.5937 5.13795 18.2864L13.8614 27.0098C17.2701 30.4185 20.5198 32.1472 23.5204 32.1472C23.5204 32.1472 23.5204 32.1472 23.521 32.1472C25.7278 32.1472 27.7851 31.2093 29.6342 29.3602L31.1392 27.8552C32.054 26.941 32.2616 25.5588 31.6571 24.4168Z" fill="#D9AA63"/>
</g>
<defs>
<clipPath id="clip0_27_130">
<rect width="32" height="32" fill="white" transform="translate(0 0.148804)"/>
</clipPath>
</defs>
</svg>
