<svg width="36" height="36" viewBox="0 0 36 36" fill="none" xmlns="http://www.w3.org/2000/svg">
<path fill-rule="evenodd" clip-rule="evenodd" d="M17.5176 20.9932C20.9003 20.9932 23.6426 18.2509 23.6426 14.8682C23.6426 11.4854 20.9003 8.74316 17.5176 8.74316C14.1348 8.74316 11.3926 11.4854 11.3926 14.8682C11.3926 18.2509 14.1348 20.9932 17.5176 20.9932ZM17.5176 12.2432C18.9673 12.2432 20.1426 13.4184 20.1426 14.8682C20.1426 16.3179 18.9673 17.4932 17.5176 17.4932C16.0678 17.4932 14.8926 16.3179 14.8926 14.8682C14.8926 13.4184 16.0678 12.2432 17.5176 12.2432Z" fill="#D9AA63"/>
<path fill-rule="evenodd" clip-rule="evenodd" d="M4.39258 15.0836C4.39258 22.508 12.0608 34.9932 17.5176 34.9932C22.9744 34.9932 30.6426 22.508 30.6426 15.0836C30.6426 7.72318 24.7738 1.74316 17.5176 1.74316C10.2614 1.74316 4.39258 7.72318 4.39258 15.0836ZM27.1426 15.0836C27.1426 20.8229 20.589 31.4932 17.5176 31.4932C14.4461 31.4932 7.89258 20.8229 7.89258 15.0836C7.89258 9.64161 12.2093 5.24316 17.5176 5.24316C22.8259 5.24316 27.1426 9.64161 27.1426 15.0836Z" fill="#D9AA63"/>
</svg>
