<svg width="36" height="23" viewBox="0 0 36 23" fill="none" xmlns="http://www.w3.org/2000/svg">
<g clip-path="url(#clip0_341_10)">
<path d="M35.4326 19.8139C35.3895 19.7178 35.3492 19.638 35.3118 19.5741C34.6938 18.4226 33.5128 17.0093 31.7695 15.3336L31.7326 15.2953L31.7142 15.2765L31.6955 15.2572H31.6768C30.8855 14.4769 30.3845 13.9523 30.1747 13.6837C29.7909 13.172 29.7048 12.6541 29.9147 12.1293C30.0628 11.7329 30.6198 10.8955 31.5839 9.61627C32.0909 8.93827 32.4926 8.3949 32.7893 7.98552C34.9285 5.0435 35.8559 3.1635 35.5713 2.34481L35.4609 2.15349C35.3866 2.03831 35.195 1.93294 34.8861 1.83684C34.5768 1.74095 34.1812 1.72509 33.6989 1.789L28.3576 1.82717C28.2711 1.79545 28.1475 1.79841 27.9866 1.83684C27.8258 1.87528 27.7453 1.89457 27.7453 1.89457L27.6523 1.94262L27.5786 2.00034C27.5168 2.03851 27.4488 2.10565 27.3745 2.20161C27.3006 2.29723 27.239 2.40946 27.1894 2.53734C26.6079 4.08502 25.9468 5.52398 25.2048 6.85414C24.7472 7.6473 24.3271 8.33469 23.9434 8.91671C23.5602 9.49853 23.2387 9.92719 22.9792 10.202C22.7193 10.477 22.4849 10.6974 22.2742 10.8638C22.0641 11.0304 21.9036 11.1007 21.7923 11.075C21.6809 11.0492 21.576 11.0237 21.4767 10.9982C21.3037 10.883 21.1646 10.7263 21.0597 10.5281C20.9543 10.3299 20.8834 10.0804 20.8463 9.77975C20.8093 9.47897 20.7876 9.22024 20.7813 9.00272C20.7755 8.78547 20.7781 8.47816 20.7908 8.08168C20.8036 7.68499 20.8093 7.4166 20.8093 7.27589C20.8093 6.78977 20.8186 6.26217 20.8369 5.69299C20.8556 5.12379 20.8707 4.67283 20.8834 4.34059C20.896 4.008 20.9019 3.65616 20.9019 3.28521C20.9019 2.91427 20.88 2.62335 20.8369 2.41221C20.7943 2.20134 20.729 1.99665 20.6428 1.7982C20.556 1.59997 20.429 1.44661 20.2625 1.33775C20.0956 1.22902 19.8881 1.14273 19.6413 1.07863C18.9858 0.925208 18.1512 0.842216 17.1372 0.829314C14.8375 0.803778 13.3599 0.957397 12.7046 1.28997C12.4449 1.43049 12.21 1.62248 11.9999 1.86534C11.7773 2.14684 11.7462 2.30046 11.9069 2.32573C12.6489 2.44071 13.1742 2.71576 13.4833 3.1506L13.5947 3.38104C13.6814 3.54729 13.7679 3.84163 13.8545 4.26365C13.941 4.68565 13.9968 5.1525 14.0213 5.66388C14.083 6.59776 14.083 7.39718 14.0213 8.06219C13.9594 8.72747 13.9009 9.24538 13.8451 9.61632C13.7893 9.98727 13.7059 10.2879 13.5947 10.518C13.4833 10.7483 13.4092 10.889 13.372 10.94C13.3349 10.9911 13.304 11.0233 13.2795 11.0359C13.1187 11.0996 12.9516 11.1321 12.7786 11.1321C12.6054 11.1321 12.3953 11.0424 12.148 10.8633C11.9009 10.6841 11.6444 10.4381 11.3785 10.1246C11.1126 9.81115 10.8127 9.37306 10.4788 8.81033C10.1451 8.2476 9.79883 7.58251 9.44025 6.8151L9.14358 6.25854C8.95812 5.90049 8.70478 5.37916 8.38329 4.69499C8.06162 4.01056 7.77729 3.3485 7.53011 2.70896C7.43129 2.44037 7.28286 2.23588 7.08507 2.09516L6.99224 2.03744C6.93053 1.98637 6.83147 1.93213 6.69557 1.87434C6.55948 1.81662 6.41747 1.77522 6.26897 1.74975L1.18721 1.78792C0.66792 1.78792 0.315577 1.90962 0.13005 2.15268L0.0558007 2.26766C0.0187085 2.33171 0 2.43398 0 2.57477C0 2.71548 0.0370922 2.8882 0.111342 3.09267C0.853185 4.89634 1.65993 6.63581 2.53156 8.31136C3.40319 9.98694 4.16063 11.3367 4.8034 12.3593C5.44631 13.3827 6.10164 14.3486 6.76936 15.2564C7.43708 16.1646 7.87907 16.7467 8.09533 17.0023C8.31184 17.2585 8.48189 17.45 8.60552 17.5779L9.06927 18.0383C9.36602 18.3454 9.80175 18.7131 10.3767 19.1415C10.9518 19.5702 11.5885 19.9921 12.2871 20.4081C12.9858 20.8236 13.7986 21.1625 14.7261 21.4246C15.6534 21.687 16.5559 21.7924 17.4338 21.7415H19.5668C19.9993 21.7029 20.327 21.5623 20.5498 21.3194L20.6235 21.2233C20.6732 21.1468 20.7197 21.0283 20.7625 20.8686C20.8059 20.7088 20.8275 20.5327 20.8275 20.3411C20.8148 19.7911 20.8552 19.2955 20.9479 18.8543C21.0403 18.4132 21.1456 18.0806 21.2635 17.8567C21.3812 17.6329 21.5141 17.4441 21.6621 17.291C21.8103 17.1376 21.9159 17.0446 21.9779 17.0126C22.0395 16.9804 22.0886 16.9586 22.1257 16.9455C22.4224 16.8432 22.7717 16.9423 23.1738 17.2431C23.5758 17.5437 23.9529 17.9149 24.3054 18.356C24.6578 18.7975 25.0812 19.2929 25.5756 19.8427C26.0706 20.3929 26.5032 20.8017 26.8738 21.0707L27.2446 21.301C27.4924 21.4545 27.8139 21.5953 28.2096 21.7231C28.6047 21.851 28.9507 21.8831 29.2478 21.8191L33.9956 21.7425C34.4653 21.7425 34.8306 21.662 35.0897 21.5024C35.3496 21.3425 35.5038 21.1663 35.5535 20.9749C35.6032 20.7831 35.6059 20.5655 35.563 20.3221C35.519 20.0794 35.4757 19.9098 35.4326 19.8139Z" fill="#E5E3DF"/>
</g>
<defs>
<clipPath id="clip0_341_10">
<rect width="35.6214" height="22.1098" fill="white" transform="translate(0 0.826584)"/>
</clipPath>
</defs>
</svg>
